<svg width="21" height="20" viewBox="0 0 21 20" fill="none" xmlns="http://www.w3.org/2000/svg">
<g clip-path="url(#clip0_1367_703)">
<path d="M2.80366 6.25817C3.497 4.87754 4.56064 3.71693 5.87569 2.90606C7.19074 2.09519 8.70538 1.66602 10.2503 1.6665C12.4962 1.6665 14.3828 2.4915 15.8253 3.83734L13.4362 6.22734C12.572 5.4015 11.4737 4.98067 10.2503 4.98067C8.07949 4.98067 6.24199 6.44734 5.58783 8.4165C5.42116 8.9165 5.32616 9.44984 5.32616 9.99984C5.32616 10.5498 5.42116 11.0832 5.58783 11.5832C6.24283 13.5532 8.07949 15.019 10.2503 15.019C11.3712 15.019 12.3253 14.7232 13.072 14.2232C13.5049 13.9382 13.8754 13.5684 14.1613 13.1361C14.4472 12.7038 14.6425 12.2181 14.7353 11.7082H10.2503V8.48484H18.0987C18.197 9.02984 18.2503 9.59817 18.2503 10.189C18.2503 12.7273 17.342 14.864 15.7653 16.314C14.387 17.5873 12.5003 18.3332 10.2503 18.3332C9.15585 18.3336 8.07202 18.1184 7.06078 17.6997C6.04954 17.2811 5.1307 16.6673 4.35679 15.8934C3.58288 15.1195 2.96907 14.2006 2.55044 13.1894C2.1318 12.1781 1.91655 11.0943 1.91699 9.99984C1.91699 8.65484 2.23866 7.38317 2.80366 6.25817Z" fill="#FC8019"/>
</g>
<defs>
<clipPath id="clip0_1367_703">
<rect width="20" height="20" fill="white" transform="translate(0.25)"/>
</clipPath>
</defs>
</svg>
