<svg width="40" height="40" viewBox="0 0 64 64" fill="none" xmlns="http://www.w3.org/2000/svg">
<rect x="64.0002" y="33.8315" width="30.1685" height="58.2861" transform="rotate(90 64.0002 33.8315)" fill="#DFE2DF"></rect>
<rect x="64.0002" y="33.8315" width="13.9239" height="58.2861" transform="rotate(90 64.0002 33.8315)" fill="#AEC0CE"></rect>
<rect x="64.0002" y="33.8315" width="15.0843" height="58.2861" transform="rotate(90 64.0002 33.8315)" fill="#AEC0CE"></rect>
<rect x="47.6802" y="48.916" width="15.0843" height="34.9717" transform="rotate(90 47.6802 48.916)" fill="#AEC0CE"></rect>
<rect x="39.52" y="52.397" width="9.28263" height="4.66289" transform="rotate(90 39.52 52.397)" fill="#6685C3"></rect>
<rect x="61.6689" y="36.1523" width="2.32066" height="13.9887" transform="rotate(90 61.6689 36.1523)" fill="#6685C3"></rect>
<rect x="19.7029" y="59.3589" width="2.32066" height="13.9887" transform="rotate(90 19.7029 59.3589)" fill="#6685C3"></rect>
<rect x="39.52" y="33.8315" width="10.443" height="4.66289" transform="rotate(90 39.52 33.8315)" fill="#6685C3"></rect>
<rect x="30.1943" y="36.1523" width="20.8859" height="13.9887" transform="rotate(90 30.1943 36.1523)" fill="#6685C3"></rect>
<rect x="39.52" y="46.5952" width="3.48098" height="4.66289" transform="rotate(90 39.52 46.5952)" fill="#6685C3"></rect>
<path d="M7.56877 44.3115L7.56877 47.0161L8.22759 47.0161L8.2276 45.4229L8.25365 45.4229L8.79895 45.9768C9.5136 46.7567 9.87093 46.9661 10.3046 46.9661C10.9652 46.9661 11.4324 46.4288 11.4324 45.6156C11.4324 44.819 10.9541 44.2726 10.2059 44.2744L10.2059 45.0358C10.5707 45.0339 10.794 45.2636 10.794 45.61C10.794 45.9435 10.5856 46.1917 10.2506 46.1917C9.94723 46.1917 9.73879 46.0065 9.40566 45.6619L8.14943 44.3115L7.56877 44.3115Z" fill="#2D4678"></path>
<path d="M7.48502 49.0848C7.48502 50.0388 8.21457 50.6149 9.4708 50.6168C10.7177 50.6187 11.4324 50.0351 11.4324 49.0848C11.4324 48.1326 10.7196 47.5547 9.4708 47.5528C8.21829 47.5491 7.48689 48.1289 7.48502 49.0848ZM8.15315 49.0848C8.15315 48.6495 8.59237 48.3679 9.4708 48.3698C10.3362 48.3716 10.7717 48.6513 10.7717 49.0848C10.7717 49.5164 10.3362 49.798 9.4708 49.798C8.59237 49.7999 8.15315 49.5183 8.15315 49.0848Z" fill="#2D4678"></path>
<path d="M7.48502 52.6763C7.48502 53.6303 8.21457 54.2064 9.4708 54.2083C10.7177 54.2101 11.4324 53.6266 11.4324 52.6763C11.4324 51.7241 10.7196 51.1461 9.4708 51.1443C8.21829 51.1406 7.48689 51.7204 7.48502 52.6763ZM8.15315 52.6763C8.15315 52.241 8.59237 51.9594 9.4708 51.9612C10.3362 51.9631 10.7717 52.2428 10.7717 52.6763C10.7717 53.1079 10.3362 53.3895 9.4708 53.3895C8.59237 53.3913 8.15315 53.1098 8.15315 52.6763Z" fill="#2D4678"></path>
<path d="M7.48502 56.2678C7.48502 57.2218 8.21457 57.7979 9.4708 57.7997C10.7177 57.8016 11.4324 57.2181 11.4324 56.2678C11.4324 55.3156 10.7196 54.7376 9.4708 54.7358C8.21829 54.7321 7.48689 55.3119 7.48502 56.2678ZM8.15315 56.2678C8.15315 55.8324 8.59237 55.5508 9.4708 55.5527C10.3362 55.5546 10.7717 55.8343 10.7717 56.2678C10.7717 56.6994 10.3362 56.981 9.4708 56.981C8.59237 56.9828 8.15315 56.7012 8.15315 56.2678Z" fill="#2D4678"></path>
<path d="M57.8053 39.8696L57.8053 42.5742L58.4642 42.5742L58.4642 40.9811L58.4902 40.9811L59.0355 41.5349C59.7502 42.3148 60.1075 42.5242 60.5411 42.5242C61.2018 42.5242 61.6689 41.9869 61.6689 41.1737C61.6689 40.3771 61.1906 39.8307 60.4425 39.8325L60.4425 40.5939C60.8073 40.592 61.0306 40.8217 61.0306 41.1682C61.0306 41.5016 60.8222 41.7498 60.4872 41.7498C60.1838 41.7498 59.9754 41.5646 59.6422 41.22L58.386 39.8696L57.8053 39.8696Z" fill="#2D4678"></path>
<path d="M57.7216 44.6429C57.7216 45.5969 58.4511 46.1731 59.7074 46.1749C60.9543 46.1768 61.6689 45.5932 61.6689 44.6429C61.6689 43.6907 60.9562 43.1128 59.7074 43.1109C58.4549 43.1072 57.7235 43.687 57.7216 44.6429ZM58.3897 44.6429C58.3897 44.2076 58.8289 43.926 59.7074 43.9279C60.5728 43.9297 61.0083 44.2094 61.0083 44.6429C61.0083 45.0745 60.5728 45.3561 59.7074 45.3561C58.8289 45.358 58.3897 45.0764 58.3897 44.6429Z" fill="#2D4678"></path>
<path d="M57.7216 48.2344C57.7216 49.1884 58.4511 49.7645 59.7074 49.7664C60.9543 49.7682 61.6689 49.1847 61.6689 48.2344C61.6689 47.2822 60.9562 46.7042 59.7074 46.7024C58.4549 46.6987 57.7235 47.2785 57.7216 48.2344ZM58.3897 48.2344C58.3897 47.7991 58.8289 47.5175 59.7074 47.5193C60.5728 47.5212 61.0083 47.8009 61.0083 48.2344C61.0083 48.666 60.5728 48.9476 59.7074 48.9476C58.8289 48.9494 58.3897 48.6679 58.3897 48.2344Z" fill="#2D4678"></path>
<path d="M57.7216 51.8259C57.7216 52.7799 58.4511 53.356 59.7074 53.3578C60.9543 53.3597 61.6689 52.7762 61.6689 51.8259C61.6689 50.8737 60.9562 50.2957 59.7074 50.2939C58.4549 50.2902 57.7235 50.87 57.7216 51.8259ZM58.3897 51.8259C58.3897 51.3905 58.8289 51.109 59.7074 51.1108C60.5728 51.1127 61.0083 51.3924 61.0083 51.8259C61.0083 52.2575 60.5728 52.5391 59.7074 52.5391C58.8289 52.5409 58.3897 52.2593 58.3897 51.8259Z" fill="#2D4678"></path>
<rect width="30.2466" height="58.1362" transform="matrix(0.747422 0.664349 -0.667787 0.744353 38.8228 0.000488281)" fill="#DFE2DF"></rect>
<rect width="13.96" height="58.1362" transform="matrix(0.747422 0.664349 -0.667787 0.744353 38.8228 0.000488281)" fill="#AEC0CE"></rect>
<rect width="15.1233" height="58.1362" transform="matrix(0.747422 0.664349 -0.667787 0.744353 38.8228 0.000488281)" fill="#AEC0CE"></rect>
<rect width="15.1233" height="34.8817" transform="matrix(0.747422 0.664349 -0.667787 0.744353 39.2561 22.1646)" fill="#AEC0CE"></rect>
<rect width="9.30666" height="4.6509" transform="matrix(0.747422 0.664349 -0.667787 0.744353 36.4294 30.541)" fill="#6685C3"></rect>
<rect width="2.32667" height="13.9527" transform="matrix(0.747422 0.664349 -0.667787 0.744353 39.009 3.27686)" fill="#6685C3"></rect>
<rect width="2.32667" height="13.9527" transform="matrix(0.747422 0.664349 -0.667787 0.744353 28.4465 49.8916)" fill="#6685C3"></rect>
<rect width="10.47" height="4.6509" transform="matrix(0.747422 0.664349 -0.667787 0.744353 22.5173 18.1753)" fill="#6685C3"></rect>
<rect width="20.94" height="13.9527" transform="matrix(0.747422 0.664349 -0.667787 0.744353 18.0447 26.645)" fill="#6685C3"></rect>
<rect width="3.49" height="4.6509" transform="matrix(0.747422 0.664349 -0.667787 0.744353 32.0818 26.6772)" fill="#6685C3"></rect>
<path d="M9.08886 48.878L11.1156 50.6795L11.5544 50.1903L10.3606 49.1292L10.3779 49.1099L11.1562 49.074C12.2166 49.0628 12.6115 48.937 12.9003 48.615C13.3404 48.1245 13.249 47.4199 12.6396 46.8782C12.0426 46.3476 11.3146 46.3387 10.8176 46.8954L11.3882 47.4026C11.6297 47.1305 11.9506 47.1177 12.2102 47.3484C12.4601 47.5705 12.5072 47.8906 12.2841 48.1393C12.0821 48.3645 11.8044 48.3959 11.3243 48.4137L9.47562 48.4469L9.08886 48.878Z" fill="#2D4678"></path>
<path d="M12.61 52.1196C13.3249 52.755 14.2426 52.5971 15.0807 51.6657C15.9126 50.7412 15.9514 49.8219 15.2392 49.1889C14.5257 48.5547 13.6178 48.6989 12.7847 49.6249C11.9476 50.5523 11.895 51.4815 12.61 52.1196ZM13.055 51.6235C12.7288 51.3336 12.8104 50.8199 13.3969 50.169C13.9747 49.5277 14.4743 49.3907 14.7992 49.6794C15.1226 49.9669 15.0435 50.4778 14.4671 51.1203C13.8834 51.7737 13.3799 51.9123 13.055 51.6235Z" fill="#2D4678"></path>
<path d="M15.3013 54.5118C16.0162 55.1472 16.9339 54.9893 17.772 54.0578C18.6039 53.1333 18.6427 52.2141 17.9305 51.5811C17.217 50.9469 16.3091 51.0911 15.476 52.017C14.6389 52.9445 14.5863 53.8737 15.3013 54.5118ZM15.7463 54.0157C15.4201 53.7257 15.5017 53.2121 16.0881 52.5612C16.666 51.9199 17.1656 51.7829 17.4905 52.0716C17.8139 52.3591 17.7348 52.87 17.1584 53.5125C16.5747 54.1659 16.0712 54.3044 15.7463 54.0157Z" fill="#2D4678"></path>
<path d="M17.9926 56.9039C18.7075 57.5394 19.6252 57.3815 20.4633 56.45C21.2952 55.5255 21.3339 54.6062 20.6218 53.9733C19.9083 53.339 19.0004 53.4833 18.1673 54.4092C17.3302 55.3366 17.2776 56.2659 17.9926 56.9039ZM18.4376 56.4079C18.1114 56.1179 18.193 55.6043 18.7794 54.9533C19.3572 54.3121 19.8569 54.175 20.1818 54.4638C20.5052 54.7513 20.4261 55.2621 19.8497 55.9046C19.266 56.5581 18.7625 56.6966 18.4376 56.4079Z" fill="#2D4678"></path>
<path d="M39.2209 8.62168L41.2477 10.4231L41.6865 9.934L40.4927 8.87287L40.51 8.85352L41.2883 8.8176C42.3487 8.80648 42.7436 8.68061 43.0324 8.35867C43.4725 7.86815 43.381 7.16351 42.7716 6.62184C42.1747 6.09128 41.4466 6.08239 40.9497 6.63908L41.5202 7.1462C41.7618 6.87415 42.0827 6.86134 42.3423 7.09208C42.5922 7.31417 42.6393 7.63427 42.4162 7.88298C42.2141 8.1082 41.9365 8.13957 41.4564 8.1574L39.6077 8.19058L39.2209 8.62168Z" fill="#2D4678"></path>
<path d="M42.7421 11.8632C43.457 12.4987 44.3746 12.3408 45.2128 11.4093C46.0447 10.4848 46.0834 9.56555 45.3713 8.93257C44.6578 8.29836 43.7499 8.4426 42.9168 9.36851C42.0797 10.296 42.0271 11.2252 42.7421 11.8632ZM43.1871 11.3672C42.8609 11.0772 42.9425 10.5636 43.5289 9.91265C44.1067 9.27138 44.6064 9.13436 44.9312 9.42309C45.2547 9.71058 45.1756 10.2215 44.5992 10.864C44.0155 11.5174 43.512 11.6559 43.1871 11.3672Z" fill="#2D4678"></path>
<path d="M45.4334 14.2554C46.1483 14.8908 47.0659 14.7329 47.9041 13.8015C48.736 12.877 48.7747 11.9577 48.0626 11.3247C47.3491 10.6905 46.4412 10.8348 45.6081 11.7607C44.771 12.6881 44.7183 13.6173 45.4334 14.2554ZM45.8784 13.7594C45.5522 13.4694 45.6337 12.9558 46.2202 12.3048C46.798 11.6635 47.2977 11.5265 47.6225 11.8153C47.946 12.1027 47.8669 12.6136 47.2905 13.2561C46.7068 13.9095 46.2032 14.0481 45.8784 13.7594Z" fill="#2D4678"></path>
<path d="M48.1247 16.6476C48.8396 17.283 49.7572 17.1251 50.5954 16.1937C51.4273 15.2691 51.466 14.3499 50.7539 13.7169C50.0404 13.0827 49.1325 13.2269 48.2993 14.1528C47.4623 15.0803 47.4096 16.0095 48.1247 16.6476ZM48.5697 16.1515C48.2435 15.8616 48.325 15.3479 48.9115 14.697C49.4893 14.0557 49.989 13.9187 50.3138 14.2074C50.6373 14.4949 50.5582 15.0058 49.9818 15.6483C49.3981 16.3017 48.8945 16.4403 48.5697 16.1515Z" fill="#2D4678"></path>
</svg>