<svg width="14" height="19" viewBox="0 0 14 19" fill="none" xmlns="http://www.w3.org/2000/svg">
<path d="M6.04688 18.3984C0.914062 11.0156 0 10.2422 0 7.5C0 3.77344 2.98828 0.75 6.75 0.75C10.4766 0.75 13.5 3.77344 13.5 7.5C13.5 10.2422 12.5508 11.0156 7.41797 18.3984C7.10156 18.8906 6.36328 18.8906 6.04688 18.3984ZM6.75 10.3125C8.29688 10.3125 9.5625 9.08203 9.5625 7.5C9.5625 5.95312 8.29688 4.6875 6.75 4.6875C5.16797 4.6875 3.9375 5.95312 3.9375 7.5C3.9375 9.08203 5.16797 10.3125 6.75 10.3125Z" fill="#FD9947"/>
</svg>
