<svg xmlns="http://www.w3.org/2000/svg" fill="none" viewBox="0 0 24 24" class="UiKitUiKitIcon_xl UiKitImgIcon UiKitUiKitIcon_root UiKitImgIcon" role="img"><path fill="currentColor" fill-rule="evenodd" d="m17.809 4.45.67-.27a1.554 1.554 0 0 0 .958-1.649l-3.061.54a2.787 2.787 0 1 0 1.433 1.379m-14.68 6.293a2.91 2.91 0 0 1 2.694-1.56c.476.019 1.04.028 1.663.039 1.253.02 2.742.045 4.216.155.293 3.884-.856 6.327-2.552 7.923l-.3 2.1-5.2-.3.85-6.4-1.951-.847zM8.85 19.4 8.6 21c.444 0 1.416.011 2.587.024h.001c1.768.02 3.985.046 5.512.046.366-1.189.665-2.414.915-3.76l1.76 3.763c.613-.485.92-.727 1.115-1.024a2.2 2.2 0 0 0 .36-1.296c-.014-.355-.152-.72-.427-1.453l-2.062-5.473c-.037-.097-.061-.162-.088-.21a.7.7 0 0 0-.132-.251c-.856-1.052-2.78-1.575-4.932-1.842.368 4.38-1.125 7.824-4.359 9.876" clip-rule="evenodd"></path></svg>