<svg width="18" height="17" viewBox="0 0 18 17" fill="none" xmlns="http://www.w3.org/2000/svg">
<path d="M9.48854 14.49C9.18506 14.3202 8.81512 14.3202 8.51165 14.49L5.0143 16.4477C4.2697 16.8645 3.37875 16.2172 3.54502 15.3803L4.32602 11.449C4.39379 11.1079 4.27945 10.756 4.0241 10.5199L1.08106 7.79854C0.45453 7.2192 0.794809 6.17179 1.64221 6.07129L5.62261 5.59921C5.96795 5.55826 6.26721 5.34083 6.41288 5.02506L8.09205 1.38503C8.44948 0.610207 9.5507 0.610208 9.90813 1.38503L11.5873 5.02506C11.733 5.34083 12.0322 5.55826 12.3776 5.59921L16.358 6.07129C17.2054 6.17179 17.5457 7.2192 16.9191 7.79854L13.9761 10.5199C13.7207 10.756 13.6064 11.1079 13.6742 11.449L14.4552 15.3803C14.6214 16.2172 13.7305 16.8645 12.9859 16.4477L9.48854 14.49Z" fill="white"/>
</svg>
