<svg width="28" height="28" viewBox="0 0 28 28" fill="none" xmlns="http://www.w3.org/2000/svg">
<rect width="28" height="28" rx="14" fill="#F5F5F5"/>
<path d="M18.2778 6.30005H9.72227C8.81464 6.30005 7.94419 6.6606 7.30239 7.30239C6.6606 7.94419 6.30005 8.81464 6.30005 9.72227V18.2778C6.30005 19.1855 6.6606 20.0559 7.30239 20.6977C7.94419 21.3395 8.81464 21.7 9.72227 21.7H18.2778C19.1855 21.7 20.0559 21.3395 20.6977 20.6977C21.3395 20.0559 21.7 19.1855 21.7 18.2778V9.72227C21.7 8.81464 21.3395 7.94419 20.6977 7.30239C20.0559 6.6606 19.1855 6.30005 18.2778 6.30005Z" stroke="#212121" stroke-width="1.8" stroke-linejoin="round"/>
<path d="M14.0001 17.4223C14.9077 17.4223 15.7782 17.0618 16.42 16.42C17.0618 15.7782 17.4223 14.9077 17.4223 14.0001C17.4223 13.0925 17.0618 12.222 16.42 11.5802C15.7782 10.9384 14.9077 10.5779 14.0001 10.5779C13.0925 10.5779 12.222 10.9384 11.5802 11.5802C10.9384 12.222 10.5779 13.0925 10.5779 14.0001C10.5779 14.9077 10.9384 15.7782 11.5802 16.42C12.222 17.0618 13.0925 17.4223 14.0001 17.4223Z" stroke="#212121" stroke-width="1.8" stroke-linejoin="round"/>
<mask id="path-4-inside-1_824_9439" fill="white">
<path d="M18.7057 10.1501C18.9326 10.1501 19.1502 10.0599 19.3106 9.89949C19.4711 9.73904 19.5612 9.52143 19.5612 9.29452C19.5612 9.06761 19.4711 8.85 19.3106 8.68955C19.1502 8.5291 18.9326 8.43896 18.7057 8.43896C18.4787 8.43896 18.2611 8.5291 18.1007 8.68955C17.9402 8.85 17.8501 9.06761 17.8501 9.29452C17.8501 9.52143 17.9402 9.73904 18.1007 9.89949C18.2611 10.0599 18.4787 10.1501 18.7057 10.1501Z"/>
</mask>
<path d="M18.7057 11.9501C19.4099 11.9501 20.0854 11.6703 20.5834 11.1723L18.0378 8.6267C18.2149 8.44958 18.4552 8.35008 18.7057 8.35008V11.9501ZM20.5834 11.1723C21.0814 10.6743 21.3612 9.99881 21.3612 9.29452H17.7612C17.7612 9.04404 17.8607 8.80382 18.0378 8.6267L20.5834 11.1723ZM21.3612 9.29452C21.3612 8.59023 21.0814 7.91477 20.5834 7.41676L18.0378 9.96234C17.8607 9.78522 17.7612 9.545 17.7612 9.29452H21.3612ZM20.5834 7.41676C20.0854 6.91875 19.4099 6.63896 18.7057 6.63896V10.239C18.4552 10.239 18.2149 10.1395 18.0378 9.96234L20.5834 7.41676ZM18.7057 6.63896C18.0014 6.63896 17.3259 6.91875 16.8279 7.41676L19.3735 9.96234C19.1964 10.1395 18.9561 10.239 18.7057 10.239V6.63896ZM16.8279 7.41676C16.3299 7.91477 16.0501 8.59023 16.0501 9.29452H19.6501C19.6501 9.545 19.5506 9.78522 19.3735 9.96234L16.8279 7.41676ZM16.0501 9.29452C16.0501 9.99881 16.3299 10.6743 16.8279 11.1723L19.3735 8.6267C19.5506 8.80382 19.6501 9.04404 19.6501 9.29452H16.0501ZM16.8279 11.1723C17.3259 11.6703 18.0014 11.9501 18.7057 11.9501V8.35008C18.9561 8.35008 19.1964 8.44958 19.3735 8.6267L16.8279 11.1723Z" fill="#212121" mask="url(#path-4-inside-1_824_9439)"/>
</svg>
