<svg width="21" height="20" viewBox="0 0 21 20" fill="none" xmlns="http://www.w3.org/2000/svg">
<g clip-path="url(#clip0_1367_1089)">
<path d="M10.4365 6.0185C9.70647 6.0185 8.57647 5.1885 7.38647 5.2185C5.81647 5.2385 4.37647 6.1285 3.56647 7.5385C1.93647 10.3685 3.14647 14.5485 4.73647 16.8485C5.51647 17.9685 6.43647 19.2285 7.65647 19.1885C8.82647 19.1385 9.26647 18.4285 10.6865 18.4285C12.0965 18.4285 12.4965 19.1885 13.7365 19.1585C14.9965 19.1385 15.7965 18.0185 16.5665 16.8885C17.4565 15.5885 17.8265 14.3285 17.8465 14.2585C17.8165 14.2485 15.3965 13.3185 15.3665 10.5185C15.3465 8.1785 17.2765 7.0585 17.3665 7.0085C16.2665 5.3985 14.5765 5.2185 13.9865 5.1785C12.4465 5.0585 11.1565 6.0185 10.4365 6.0185ZM13.0365 3.6585C13.6865 2.8785 14.1165 1.7885 13.9965 0.708496C13.0665 0.748496 11.9465 1.3285 11.2765 2.1085C10.6765 2.7985 10.1565 3.9085 10.2965 4.9685C11.3265 5.0485 12.3865 4.4385 13.0365 3.6585Z" fill="#FC8019"/>
</g>
<defs>
<clipPath id="clip0_1367_1089">
<rect width="20" height="20" fill="white" transform="translate(0.75)"/>
</clipPath>
</defs>
</svg>
