<svg width="404" height="17" viewBox="0 0 404 17" fill="none" xmlns="http://www.w3.org/2000/svg">
<rect y="8.25" width="112" height="1.5" rx="0.75" fill="#9E9E9E"/>
<path d="M141.667 13.216C139.021 13.216 136.861 11.02 136.861 8.338C136.861 5.656 139.021 3.478 141.667 3.478C144.295 3.478 146.455 5.656 146.455 8.338C146.455 11.02 144.295 13.216 141.667 13.216ZM141.667 12.01C143.521 12.01 145.051 10.354 145.051 8.338C145.051 6.322 143.521 4.684 141.667 4.684C139.795 4.684 138.265 6.322 138.265 8.338C138.265 10.354 139.795 12.01 141.667 12.01ZM149.453 5.512C150.011 4.27 151.343 3.478 153.053 3.478V4.684C150.947 4.684 149.453 5.98 149.453 7.798V13H148.103V3.694H149.453V5.512ZM164.01 13.216C161.4 13.216 159.186 10.984 159.186 8.338C159.186 5.692 161.4 3.478 164.01 3.478C165.27 3.478 166.44 4 167.322 4.846L166.386 5.764C165.774 5.098 164.928 4.684 164.01 4.684C162.156 4.684 160.608 6.358 160.608 8.338C160.608 10.336 162.156 12.01 164.01 12.01C164.946 12.01 165.81 11.578 166.44 10.876L167.376 11.794C166.494 12.676 165.306 13.216 164.01 13.216ZM173.326 13.216C170.68 13.216 168.52 11.02 168.52 8.338C168.52 5.656 170.68 3.478 173.326 3.478C175.954 3.478 178.114 5.656 178.114 8.338C178.114 11.02 175.954 13.216 173.326 13.216ZM173.326 12.01C175.18 12.01 176.71 10.354 176.71 8.338C176.71 6.322 175.18 4.684 173.326 4.684C171.454 4.684 169.924 6.322 169.924 8.338C169.924 10.354 171.454 12.01 173.326 12.01ZM184.171 3.478C186.241 3.478 187.663 4.936 187.663 7.078V13H186.313V7.258C186.313 5.728 185.359 4.684 183.991 4.684C182.407 4.684 181.111 5.764 181.111 7.078V13H179.761V3.694H181.111V5.17C181.651 4.18 182.839 3.478 184.171 3.478ZM193.714 11.632L194.38 12.622C193.894 13 193.282 13.216 192.652 13.216C191.32 13.216 190.384 12.226 190.384 10.84V4.9H188.926V3.694H190.384V1.138H191.734V3.694H194.02V4.9H191.734V10.84C191.734 11.524 192.202 12.01 192.742 12.01C193.156 12.01 193.516 11.848 193.714 11.632ZM196.617 2.002C196.113 2.002 195.717 1.588 195.717 1.102C195.717 0.633999 196.113 0.219999 196.617 0.219999C197.103 0.219999 197.499 0.633999 197.499 1.102C197.499 1.588 197.103 2.002 196.617 2.002ZM195.933 13V3.694H197.283V13H195.933ZM203.753 3.478C205.823 3.478 207.245 4.936 207.245 7.078V13H205.895V7.258C205.895 5.728 204.941 4.684 203.573 4.684C201.989 4.684 200.693 5.764 200.693 7.078V13H199.343V3.694H200.693V5.17C201.233 4.18 202.421 3.478 203.753 3.478ZM215.596 3.694H216.946V13H215.596V11.524C215.056 12.514 213.868 13.216 212.536 13.216C210.466 13.216 209.044 11.758 209.044 9.616V3.694H210.394V9.436C210.394 10.966 211.348 12.01 212.716 12.01C214.3 12.01 215.596 10.93 215.596 9.616V3.694ZM223.316 12.01C224.414 12.01 225.674 11.524 226.25 10.894L227.078 11.776C226.268 12.658 224.63 13.216 223.334 13.216C220.85 13.216 218.618 11.182 218.618 8.32C218.618 5.548 220.706 3.478 223.208 3.478C226.016 3.478 227.618 5.602 227.618 8.86H220.004C220.202 10.678 221.48 12.01 223.316 12.01ZM223.262 4.684C221.606 4.684 220.274 5.854 220.022 7.654H226.286C226.106 5.98 225.116 4.684 223.262 4.684ZM236.793 13L233.679 3.694H235.119L237.441 11.2L239.979 3.694H241.149L243.687 11.2L246.009 3.694H247.449L244.317 13H243.039L240.573 5.566L238.071 13H236.793ZM249.686 2.002C249.182 2.002 248.786 1.588 248.786 1.102C248.786 0.633999 249.182 0.219999 249.686 0.219999C250.172 0.219999 250.568 0.633999 250.568 1.102C250.568 1.588 250.172 2.002 249.686 2.002ZM249.002 13V3.694H250.352V13H249.002ZM256.714 11.632L257.38 12.622C256.894 13 256.282 13.216 255.652 13.216C254.32 13.216 253.384 12.226 253.384 10.84V4.9H251.926V3.694H253.384V1.138H254.734V3.694H257.02V4.9H254.734V10.84C254.734 11.524 255.202 12.01 255.742 12.01C256.156 12.01 256.516 11.848 256.714 11.632ZM263.379 3.478C265.449 3.478 266.871 4.936 266.871 7.078V13H265.521V7.258C265.521 5.728 264.567 4.684 263.199 4.684C261.615 4.684 260.319 5.764 260.319 7.078V13H258.969V0.417999H260.319V5.17C260.859 4.18 262.047 3.478 263.379 3.478Z" fill="#9E9E9E"/>
<rect x="292" y="8.25" width="112" height="1.5" rx="0.75" fill="#9E9E9E"/>
</svg>
