<svg width="12" height="15" viewBox="0 0 12 15" fill="none" xmlns="http://www.w3.org/2000/svg">
<path d="M1.33341 0.333328H10.6667C10.8436 0.333328 11.0131 0.403566 11.1382 0.52859C11.2632 0.653615 11.3334 0.823184 11.3334 0.999995V13.762C11.3335 13.8216 11.3176 13.8801 11.2873 13.9315C11.2571 13.9829 11.2137 14.0252 11.1615 14.0541C11.1094 14.0829 11.0504 14.0973 10.9908 14.0956C10.9313 14.094 10.8732 14.0764 10.8227 14.0447L6.00008 11.02L1.17741 14.044C1.12699 14.0757 1.06901 14.0933 1.00948 14.0949C0.949959 14.0966 0.891072 14.0823 0.838945 14.0535C0.786817 14.0248 0.743353 13.9825 0.71307 13.9313C0.682787 13.88 0.666792 13.8215 0.666748 13.762V0.999995C0.666748 0.823184 0.736986 0.653615 0.86201 0.52859C0.987035 0.403566 1.1566 0.333328 1.33341 0.333328ZM10.0001 1.66666H2.00008V11.9547L6.00008 9.44733L10.0001 11.9547V1.66666Z" fill="#FC8019"/>
</svg>
