<svg width="80" height="50" viewBox="0 0 39 27" xmlns="http://www.w3.org/2000/svg">
  <defs></defs>
  <path fill="#F93E03" opacity="1.000000" stroke="none" d="M 20.525 6.734 C 20.646 7.126 20.77 7.514 20.883 7.907 C 21.092 8.646 21.238 9.393 21.329 10.15 C 21.435 10.994 21.45 11.841 21.413 12.687 C 21.381 13.354 21.313 14.021 21.198 14.682 C 21.072 15.411 20.934 16.138 20.798 16.865 C 20.795 16.884 20.783 16.905 20.774 16.929 C 19.882 16.929 18.996 16.929 18.093 16.929 C 18.07 16.821 18.041 16.714 18.02 16.605 C 17.852 15.786 17.699 14.964 17.594 14.14 C 17.495 13.377 17.439 12.612 17.44 11.846 C 17.44 10.358 17.678 8.892 18.122 7.449 C 18.193 7.215 18.271 6.983 18.351 6.738 C 18.356 6.717 18.354 6.711 18.352 6.703 C 18.346 6.71 18.337 6.715 18.327 6.719 C 18.299 6.734 18.264 6.748 18.238 6.767 C 16.788 7.759 15.337 8.748 13.891 9.742 C 13.26 10.181 12.653 10.641 12.119 11.156 C 11.643 11.615 11.249 12.115 11.008 12.683 C 10.762 13.262 10.711 13.863 10.78 14.468 C 10.869 15.272 11.149 16.036 11.482 16.795 C 11.497 16.827 11.508 16.859 11.522 16.892 C 11.524 16.899 11.522 16.907 11.522 16.928 C 11.473 16.93 11.42 16.936 11.368 16.936 C 10.431 16.936 9.495 16.934 8.556 16.938 C 8.447 16.938 8.398 16.912 8.351 16.835 C 7.993 16.241 7.714 15.627 7.585 14.973 C 7.339 13.712 7.719 12.581 8.766 11.599 C 9.343 11.06 10.001 10.588 10.689 10.145 C 11.951 9.323 13.273 8.562 14.595 7.802 C 15.462 7.303 16.334 6.81 17.217 6.305 C 17.241 6.291 17.249 6.286 17.271 6.28 C 17.328 6.244 17.374 6.214 17.43 6.18 C 17.436 6.174 17.436 6.169 17.436 6.164 C 17.433 6.17 17.43 6.176 17.414 6.181 C 17.342 6.206 17.286 6.231 17.218 6.257 C 17.202 6.267 17.194 6.272 17.189 6.276 C 17.094 6.313 17.001 6.348 16.912 6.386 C 15.709 6.89 14.494 7.381 13.306 7.907 C 11.003 8.923 8.806 10.073 6.67 11.294 C 6.143 11.594 5.629 11.912 5.189 12.292 C 4.634 12.771 4.232 13.315 4.049 13.954 C 3.934 14.359 3.91 14.767 3.954 15.178 C 4.013 15.732 4.178 16.265 4.385 16.794 C 4.402 16.835 4.415 16.874 4.433 16.925 C 3.894 16.925 3.366 16.925 2.824 16.925 C 2.745 16.716 2.666 16.506 2.581 16.285 C 2.484 16.357 2.397 16.437 2.286 16.497 C 2.178 16.556 2.054 16.605 1.926 16.633 C 1.793 16.66 1.646 16.67 1.51 16.659 C 1.377 16.649 1.24 16.617 1.125 16.569 C 1.007 16.522 0.893 16.455 0.801 16.378 C 0.428 16.061 0.404 15.577 0.739 15.238 C 0.938 15.031 1.206 14.916 1.528 14.894 C 1.811 14.873 1.904 14.899 2.4 15.106 C 2.348 14.421 2.542 13.775 2.949 13.146 C 2.542 13.157 2.21 13.06 1.972 12.809 C 1.83 12.655 1.764 12.479 1.779 12.29 C 1.807 11.875 2.17 11.574 2.693 11.517 C 3.1 11.472 3.646 11.651 3.823 12.154 C 3.924 12.075 4.017 12.002 4.111 11.932 C 4.212 11.855 4.317 11.779 4.422 11.705 C 4.522 11.632 4.625 11.563 4.729 11.494 C 4.837 11.423 4.948 11.352 5.057 11.285 C 5.164 11.218 5.27 11.151 5.377 11.087 C 5.49 11.02 5.602 10.953 5.716 10.888 C 5.821 10.824 5.932 10.763 6.049 10.693 C 5.462 10.548 5.155 10.206 5.245 9.806 C 5.334 9.42 5.768 9.142 6.251 9.167 C 6.543 9.182 6.782 9.282 6.964 9.462 C 7.143 9.642 7.19 9.85 7.149 10.083 C 7.935 9.703 8.703 9.333 9.479 8.956 C 9.45 8.945 9.411 8.926 9.372 8.912 C 9.071 8.797 8.886 8.547 8.918 8.299 C 8.953 8.018 9.192 7.8 9.533 7.735 C 10.014 7.644 10.49 7.934 10.501 8.326 C 10.501 8.373 10.495 8.419 10.486 8.481 C 10.493 8.5 10.503 8.505 10.516 8.509 C 10.914 8.336 11.313 8.163 11.71 7.988 C 11.997 7.862 12.289 7.735 12.573 7.608 C 12.62 7.588 12.665 7.566 12.718 7.541 C 12.252 7.339 12.082 7.051 12.225 6.729 C 12.351 6.443 12.722 6.264 13.097 6.315 C 13.323 6.346 13.501 6.437 13.63 6.586 C 13.734 6.71 13.758 6.787 13.761 7.096 C 14.444 6.811 15.119 6.529 15.8 6.243 C 15.363 6.007 15.236 5.762 15.393 5.48 C 15.529 5.233 15.869 5.1 16.197 5.16 C 16.574 5.228 16.751 5.467 16.726 5.876 C 17.258 5.665 17.787 5.455 18.325 5.241 C 18.27 5.18 18.221 5.13 18.179 5.076 C 18.035 4.892 18.083 4.745 18.321 4.636 C 18.385 4.606 18.458 4.587 18.526 4.56 C 18.58 4.539 18.635 4.521 18.682 4.491 C 18.806 4.413 18.842 4.315 18.755 4.209 C 18.67 4.105 18.564 4.012 18.455 3.923 C 18.246 3.752 18.018 3.59 17.81 3.418 C 17.661 3.289 17.547 3.137 17.471 2.969 C 17.376 2.765 17.369 2.559 17.459 2.352 C 17.593 2.041 17.925 1.927 18.244 1.99 C 18.325 2.006 18.409 2.025 18.505 2.045 C 18.518 2.015 18.529 1.985 18.541 1.954 C 18.595 1.821 18.685 1.711 18.845 1.651 C 18.917 1.622 18.935 1.586 18.936 1.529 C 18.949 1.304 18.966 1.077 19.05 0.859 C 19.084 0.773 19.123 0.687 19.179 0.61 C 19.329 0.397 19.54 0.396 19.694 0.606 C 19.812 0.762 19.862 0.941 19.89 1.116 C 19.914 1.258 19.923 1.398 19.935 1.539 C 19.938 1.578 19.935 1.614 19.991 1.635 C 20.202 1.711 20.307 1.85 20.353 2.021 C 20.357 2.029 20.366 2.035 20.371 2.042 C 20.472 2.021 20.57 2 20.669 1.985 C 20.976 1.942 21.227 2.042 21.365 2.263 C 21.523 2.519 21.511 2.778 21.369 3.033 C 21.238 3.277 21.021 3.475 20.783 3.657 C 20.659 3.754 20.524 3.84 20.402 3.936 C 20.307 4.008 20.218 4.084 20.146 4.169 C 20.018 4.32 20.072 4.455 20.279 4.538 C 20.318 4.555 20.361 4.561 20.402 4.577 C 20.477 4.607 20.559 4.636 20.627 4.675 C 20.78 4.763 20.818 4.878 20.736 5.014 C 20.69 5.09 20.624 5.158 20.554 5.243 C 21.083 5.455 21.614 5.665 22.156 5.88 C 22.099 5.496 22.287 5.237 22.666 5.162 C 23.002 5.096 23.363 5.239 23.492 5.494 C 23.634 5.778 23.487 6.051 23.066 6.237 C 23.751 6.53 24.427 6.81 25.124 7.099 C 25.085 6.859 25.132 6.653 25.346 6.489 C 25.476 6.389 25.63 6.33 25.806 6.313 C 26.197 6.278 26.546 6.461 26.658 6.752 C 26.781 7.066 26.611 7.341 26.152 7.544 C 26.897 7.87 27.627 8.194 28.394 8.531 C 28.343 8.287 28.388 8.093 28.574 7.926 C 28.699 7.818 28.856 7.75 29.036 7.728 C 29.412 7.68 29.773 7.848 29.906 8.127 C 29.989 8.3 29.972 8.47 29.868 8.636 C 29.766 8.796 29.59 8.891 29.391 8.953 C 30.168 9.331 30.943 9.704 31.721 10.082 C 31.677 9.835 31.737 9.616 31.941 9.432 C 32.111 9.28 32.321 9.192 32.576 9.17 C 33.055 9.13 33.507 9.382 33.613 9.757 C 33.736 10.184 33.451 10.526 32.829 10.694 C 33.605 11.146 34.373 11.599 35.038 12.15 C 35.301 11.651 35.744 11.434 36.297 11.528 C 36.779 11.613 37.117 11.968 37.093 12.368 C 37.082 12.606 36.955 12.798 36.732 12.952 C 36.547 13.078 36.427 13.106 35.932 13.154 C 36.328 13.768 36.524 14.412 36.471 15.121 C 36.82 14.908 37.188 14.831 37.596 14.935 C 37.867 15.004 38.07 15.135 38.215 15.33 C 38.501 15.713 38.377 16.211 37.934 16.483 C 37.674 16.638 37.379 16.696 37.06 16.656 C 36.747 16.618 36.501 16.484 36.299 16.27 C 36.211 16.501 36.129 16.714 36.048 16.929 C 35.51 16.929 34.988 16.929 34.448 16.929 C 34.458 16.893 34.464 16.861 34.474 16.831 C 34.638 16.42 34.777 16.003 34.861 15.575 C 35.019 14.775 34.962 13.996 34.519 13.252 C 34.195 12.717 33.723 12.274 33.161 11.891 C 32.598 11.501 31.987 11.162 31.374 10.822 C 29.413 9.736 27.408 8.707 25.313 7.792 C 24.286 7.343 23.241 6.919 22.205 6.487 C 22.062 6.426 21.917 6.366 21.772 6.309 C 21.743 6.295 21.709 6.289 21.678 6.282 C 21.669 6.289 21.664 6.297 21.659 6.305 C 21.714 6.338 21.767 6.37 21.823 6.402 C 23.085 7.125 24.349 7.845 25.607 8.574 C 26.622 9.16 27.622 9.758 28.577 10.407 C 29.112 10.769 29.623 11.15 30.082 11.574 C 30.701 12.151 31.121 12.802 31.287 13.552 C 31.389 14.02 31.38 14.489 31.29 14.957 C 31.162 15.62 30.881 16.241 30.518 16.843 C 30.481 16.907 30.438 16.938 30.339 16.938 C 29.375 16.934 28.408 16.936 27.445 16.936 C 27.416 16.936 27.384 16.931 27.339 16.929 C 27.356 16.882 27.372 16.843 27.389 16.805 C 27.644 16.222 27.868 15.634 28.002 15.024 C 28.158 14.321 28.185 13.622 27.958 12.924 C 27.753 12.307 27.366 11.768 26.871 11.274 C 26.406 10.801 25.877 10.381 25.315 9.984 C 24.402 9.344 23.479 8.714 22.559 8.083 C 21.897 7.628 21.232 7.176 20.555 6.716 C 20.534 6.705 20.527 6.705 20.52 6.705 C 20.523 6.717 20.524 6.726 20.525 6.734 M 21.605 6.229 C 21.56 6.214 21.516 6.195 21.471 6.178 C 21.49 6.217 21.517 6.235 21.548 6.25 C 21.572 6.264 21.597 6.272 21.643 6.288 C 21.635 6.273 21.625 6.258 21.605 6.229 M 17.505 6.143 C 17.505 6.143 17.504 6.142 17.505 6.143 Z" style=""></path>
  <path fill="#F93E03" opacity="1.000000" stroke="none" d="M 10.859 22.667 C 10.737 22.667 10.627 22.667 10.51 22.667 C 10.51 21.812 10.51 20.971 10.51 20.109 C 10.391 20.181 10.346 20.275 10.279 20.351 C 10.207 20.43 10.141 20.514 10.073 20.597 C 10.005 20.679 9.938 20.762 9.868 20.844 C 9.797 20.93 9.725 21.015 9.656 21.102 C 9.587 21.184 9.519 21.267 9.451 21.35 C 9.383 21.431 9.317 21.517 9.246 21.597 C 9.181 21.678 9.11 21.758 9.034 21.852 C 8.547 21.268 8.077 20.7 7.61 20.133 C 7.597 20.136 7.593 20.136 7.585 20.137 C 7.583 20.138 7.579 20.142 7.579 20.145 C 7.575 20.976 7.574 21.805 7.57 22.637 C 7.57 22.642 7.567 22.645 7.563 22.657 C 7.166 22.657 6.77 22.657 6.363 22.657 C 6.363 21.33 6.363 20.005 6.363 18.671 C 6.404 18.668 6.444 18.661 6.483 18.661 C 6.86 18.661 7.229 18.664 7.603 18.659 C 7.706 18.658 7.759 18.688 7.809 18.754 C 8.183 19.241 8.562 19.724 8.941 20.208 C 8.974 20.249 9.008 20.292 9.051 20.346 C 9.177 20.18 9.3 20.026 9.419 19.877 C 9.706 19.508 9.996 19.14 10.275 18.77 C 10.339 18.682 10.414 18.658 10.532 18.659 C 10.88 18.665 11.226 18.661 11.573 18.661 C 11.624 18.661 11.678 18.661 11.738 18.661 C 11.738 19.999 11.738 21.325 11.738 22.667 C 11.446 22.667 11.159 22.667 10.859 22.667 Z" style=""></path>
  <path fill="#F93E03" opacity="1.000000" stroke="none" d="M 32.673 19.543 C 32.673 20.586 32.673 21.62 32.673 22.657 C 32.258 22.657 31.854 22.657 31.434 22.657 C 31.434 21.827 31.434 21.007 31.434 20.182 C 31.426 20.18 31.418 20.179 31.409 20.177 C 31.378 20.208 31.347 20.24 31.319 20.275 C 30.664 21.026 30.008 21.773 29.361 22.531 C 29.268 22.637 29.175 22.673 29.018 22.669 C 28.746 22.658 28.475 22.667 28.204 22.664 C 28.151 22.664 28.099 22.661 28.039 22.659 C 28.039 21.328 28.039 20.002 28.039 18.668 C 28.448 18.668 28.85 18.668 29.273 18.668 C 29.273 19.491 29.273 20.311 29.273 21.132 C 29.283 21.134 29.294 21.136 29.304 21.138 C 29.342 21.1 29.381 21.061 29.415 21.022 C 30.07 20.271 30.724 19.521 31.373 18.767 C 31.443 18.686 31.515 18.657 31.635 18.659 C 31.922 18.666 32.209 18.661 32.498 18.661 C 32.549 18.661 32.603 18.661 32.673 18.661 C 32.673 18.959 32.673 19.244 32.673 19.543 Z" style=""></path>
  <path fill="#F93E03" opacity="1.000000" stroke="none" d="M 2.074 19.108 C 2.074 19.794 2.074 20.467 2.074 21.142 C 2.083 21.144 2.093 21.146 2.102 21.147 C 2.137 21.111 2.17 21.075 2.203 21.038 C 2.862 20.279 3.524 19.522 4.179 18.763 C 4.245 18.686 4.312 18.658 4.43 18.659 C 4.769 18.665 5.112 18.661 5.462 18.661 C 5.462 19.995 5.462 21.321 5.462 22.661 C 5.061 22.671 4.657 22.663 4.237 22.667 C 4.237 21.827 4.237 21.007 4.237 20.183 C 4.227 20.181 4.22 20.179 4.208 20.177 C 4.175 20.213 4.141 20.248 4.11 20.287 C 3.449 21.044 2.787 21.801 2.132 22.563 C 2.067 22.638 2 22.671 1.882 22.669 C 1.592 22.661 1.296 22.667 1.005 22.667 C 0.957 22.667 0.907 22.667 0.849 22.667 C 0.849 21.331 0.849 20.005 0.849 18.671 C 1.247 18.671 1.651 18.671 2.074 18.671 C 2.074 18.815 2.074 18.954 2.074 19.108 Z" style=""></path>
  <path fill="#F93E03" opacity="1.000000" stroke="none" d="M 37.219 22.667 C 37.072 22.667 36.944 22.667 36.797 22.667 C 36.797 22.244 36.797 21.83 36.797 21.413 C 36.74 21.408 36.699 21.402 36.655 21.402 C 36.483 21.4 36.311 21.408 36.137 21.399 C 36.024 21.395 35.963 21.429 35.901 21.502 C 35.61 21.855 35.308 22.205 35.017 22.561 C 34.951 22.64 34.887 22.671 34.769 22.669 C 34.402 22.661 34.032 22.667 33.662 22.667 C 33.616 22.667 33.57 22.667 33.488 22.667 C 33.905 22.187 34.3 21.73 34.704 21.263 C 34.626 21.234 34.558 21.209 34.491 21.184 C 34.055 21.017 33.745 20.766 33.625 20.384 C 33.547 20.13 33.546 19.876 33.627 19.62 C 33.745 19.246 34.055 19.007 34.482 18.847 C 34.852 18.707 35.245 18.661 35.649 18.661 C 36.413 18.661 37.178 18.661 37.942 18.661 C 37.966 18.661 37.993 18.665 38.028 18.666 C 38.028 19.997 38.028 21.324 38.028 22.667 C 37.763 22.667 37.498 22.667 37.219 22.667 M 35.288 19.541 C 34.941 19.668 34.802 19.864 34.84 20.169 C 34.871 20.409 35.09 20.591 35.427 20.652 C 35.521 20.67 35.62 20.676 35.717 20.677 C 36.031 20.68 36.344 20.678 36.66 20.678 C 36.701 20.678 36.742 20.672 36.784 20.668 C 36.784 20.271 36.784 19.881 36.784 19.489 C 36.751 19.486 36.725 19.48 36.701 19.48 C 36.368 19.477 36.04 19.473 35.71 19.481 C 35.576 19.485 35.443 19.515 35.288 19.541 Z" style=""></path>
  <path fill="#F93E03" opacity="1.000000" stroke="none" d="M 17.135 20.75 C 17.135 21.393 17.135 22.021 17.135 22.657 C 16.721 22.657 16.316 22.657 15.888 22.657 C 15.883 22.486 15.887 22.311 15.887 22.137 C 15.886 21.962 15.887 21.785 15.887 21.612 C 15.887 21.437 15.887 21.261 15.887 21.086 C 15.887 20.914 15.887 20.742 15.887 20.571 C 15.887 20.396 15.887 20.22 15.887 20.045 C 15.887 19.87 15.887 19.697 15.887 19.516 C 15.21 19.516 14.552 19.516 13.881 19.516 C 13.881 20.565 13.881 21.609 13.881 22.657 C 13.457 22.657 13.049 22.657 12.628 22.657 C 12.628 21.33 12.628 20.004 12.628 18.671 C 14.126 18.671 15.622 18.671 17.135 18.671 C 17.135 19.361 17.135 20.049 17.135 20.75 Z" style=""></path>
  <path fill="#F93E03" opacity="1.000000" stroke="none" d="M 19.99 20.276 C 20.591 20.276 21.176 20.276 21.767 20.276 C 21.767 20.524 21.767 20.762 21.767 21.017 C 21.348 21.022 20.93 21.018 20.509 21.018 C 20.094 21.021 19.677 21.021 19.256 21.021 C 19.256 21.298 19.256 21.563 19.256 21.841 C 19.432 21.853 19.618 21.845 19.799 21.845 C 19.981 21.85 20.166 21.846 20.349 21.846 C 20.54 21.846 20.728 21.846 20.919 21.846 C 21.101 21.846 21.287 21.846 21.47 21.846 C 21.654 21.846 21.837 21.846 22.032 21.846 C 22.032 22.118 22.032 22.382 22.032 22.655 C 20.696 22.655 19.363 22.655 18.02 22.655 C 18.02 21.328 18.02 20.002 18.02 18.668 C 19.356 18.668 20.689 18.668 22.031 18.668 C 22.031 18.936 22.031 19.201 22.031 19.477 C 21.105 19.477 20.188 19.477 19.257 19.477 C 19.257 19.743 19.257 19.997 19.257 20.272 C 19.494 20.28 19.734 20.274 19.99 20.276 Z" style=""></path>
  <path fill="#F93E03" opacity="1.000000" stroke="none" d="M 24.574 21.472 C 24.436 21.472 24.311 21.472 24.173 21.472 C 24.173 21.87 24.173 22.258 24.173 22.663 C 23.751 22.669 23.343 22.664 22.926 22.667 C 22.926 21.33 22.926 20.004 22.926 18.671 C 22.949 18.667 22.978 18.661 23.003 18.661 C 23.75 18.664 24.498 18.664 25.243 18.666 C 25.501 18.667 25.749 18.704 25.992 18.767 C 26.727 18.961 27.128 19.379 27.157 19.987 C 27.167 20.181 27.143 20.372 27.063 20.557 C 26.919 20.883 26.633 21.106 26.253 21.262 C 25.925 21.397 25.574 21.456 25.207 21.47 C 25.003 21.478 24.796 21.472 24.574 21.472 M 24.17 20.353 C 24.17 20.475 24.17 20.598 24.17 20.719 C 24.529 20.719 24.868 20.728 25.205 20.715 C 25.368 20.709 25.519 20.653 25.646 20.565 C 25.893 20.389 25.952 20.169 25.877 19.922 C 25.802 19.672 25.575 19.537 25.273 19.496 C 25.037 19.464 24.788 19.473 24.547 19.464 C 24.424 19.461 24.301 19.464 24.182 19.464 C 24.176 19.488 24.171 19.496 24.171 19.505 C 24.17 19.779 24.17 20.053 24.17 20.353 Z" style=""></path>
  <path fill="#F93E03" opacity="1.000000" stroke="none" d="M 12.986 26.018 C 12.986 25.528 12.988 25.057 12.991 24.579 C 12.991 24.572 12.997 24.563 13.003 24.55 C 13.142 24.517 13.243 24.544 13.341 24.645 C 13.73 25.047 14.127 25.439 14.523 25.837 C 14.556 25.87 14.591 25.902 14.651 25.957 C 14.651 25.469 14.651 25.012 14.651 24.546 C 14.742 24.546 14.815 24.546 14.901 24.546 C 14.901 25.137 14.901 25.724 14.901 26.321 C 14.779 26.348 14.687 26.329 14.6 26.241 C 14.194 25.822 13.78 25.41 13.369 25 C 13.337 24.967 13.303 24.938 13.241 24.915 C 13.241 25.38 13.241 25.848 13.241 26.324 C 13.151 26.324 13.077 26.324 12.986 26.324 C 12.986 26.223 12.986 26.128 12.986 26.018 Z" style=""></path>
  <path fill="#F93E03" opacity="1.000000" stroke="none" d="M 23.07 24.882 C 23.222 24.687 23.416 24.556 23.699 24.518 C 24.045 24.475 24.327 24.558 24.547 24.775 C 24.672 24.902 24.753 25.046 24.784 25.203 C 24.843 25.512 24.803 25.807 24.568 26.074 C 24.221 26.469 23.467 26.462 23.143 26.08 C 22.816 25.697 22.809 25.297 23.07 24.882 M 23.17 25.344 C 23.172 25.418 23.168 25.497 23.175 25.572 C 23.193 25.725 23.262 25.864 23.382 25.986 C 23.644 26.251 24.099 26.243 24.344 25.968 C 24.613 25.667 24.602 25.189 24.327 24.895 C 24.097 24.642 23.622 24.63 23.382 24.883 C 23.259 25.012 23.19 25.159 23.17 25.344 Z" style=""></path>
  <path fill="#F93E03" opacity="1.000000" stroke="none" d="M 25.55 26.169 C 25.118 25.827 25.124 25.193 25.407 24.851 C 25.794 24.381 26.593 24.384 26.942 24.871 C 27.21 25.25 27.207 25.645 26.924 26.02 C 26.619 26.42 26.007 26.484 25.55 26.169 M 25.479 25.438 C 25.478 25.629 25.533 25.803 25.672 25.958 C 25.939 26.257 26.418 26.251 26.674 25.952 C 26.914 25.666 26.91 25.218 26.676 24.929 C 26.427 24.622 25.895 24.621 25.652 24.93 C 25.537 25.08 25.481 25.24 25.479 25.438 Z" style=""></path>
  <path fill="#F93E03" opacity="1.000000" stroke="none" d="M 18.983 25.525 C 18.72 25.525 18.468 25.525 18.211 25.525 C 18.211 25.729 18.211 25.929 18.211 26.147 C 18.435 26.147 18.666 26.147 18.897 26.147 C 19.123 26.147 19.349 26.147 19.587 26.147 C 19.587 26.206 19.587 26.26 19.587 26.322 C 19.041 26.322 18.497 26.322 17.946 26.322 C 17.946 25.731 17.946 25.145 17.946 24.546 C 18.482 24.546 19.017 24.546 19.564 24.546 C 19.564 24.604 19.564 24.661 19.564 24.728 C 19.111 24.728 18.664 24.728 18.209 24.728 C 18.209 24.933 18.209 25.129 18.209 25.337 C 18.617 25.337 19.02 25.337 19.426 25.337 C 19.426 25.404 19.426 25.459 19.426 25.525 C 19.279 25.525 19.14 25.525 18.983 25.525 Z" style=""></path>
  <path fill="#F93E03" opacity="1.000000" stroke="none" d="M 10.179 25.012 C 10.197 25.138 10.284 25.209 10.415 25.246 C 10.555 25.285 10.703 25.311 10.845 25.349 C 10.985 25.385 11.124 25.417 11.254 25.469 C 11.618 25.62 11.585 26.002 11.384 26.167 C 11.263 26.267 11.114 26.329 10.945 26.348 C 10.528 26.39 10.154 26.308 9.826 26.071 C 9.88 26.022 9.928 25.975 9.984 25.925 C 10.042 25.961 10.091 25.988 10.136 26.016 C 10.341 26.133 10.57 26.184 10.82 26.172 C 10.938 26.167 11.045 26.14 11.137 26.081 C 11.325 25.957 11.307 25.728 11.091 25.638 C 10.969 25.587 10.828 25.565 10.695 25.53 C 10.546 25.492 10.392 25.465 10.251 25.416 C 9.804 25.269 9.819 24.794 10.188 24.616 C 10.301 24.561 10.422 24.53 10.552 24.518 C 10.828 24.493 11.221 24.563 11.455 24.742 C 11.412 24.787 11.365 24.838 11.313 24.893 C 11.264 24.866 11.226 24.845 11.185 24.825 C 10.991 24.728 10.782 24.685 10.552 24.707 C 10.33 24.726 10.203 24.826 10.179 25.012 Z" style=""></path>
  <path fill="#F93E03" opacity="1.000000" stroke="none" d="M 15.649 25.982 C 15.367 25.66 15.38 25.181 15.677 24.866 C 16.092 24.422 16.845 24.437 17.231 24.648 C 17.31 24.691 17.386 24.739 17.479 24.795 C 17.417 24.849 17.364 24.894 17.302 24.946 C 17.058 24.762 16.777 24.67 16.441 24.709 C 16.236 24.732 16.066 24.816 15.932 24.943 C 15.631 25.224 15.644 25.679 15.959 25.955 C 16.143 26.112 16.37 26.183 16.643 26.174 C 16.859 26.165 16.94 26.138 17.33 25.922 C 17.38 25.965 17.432 26.008 17.48 26.049 C 17.114 26.447 16.107 26.519 15.649 25.982 Z" style=""></path>
  <path fill="#F93E03" opacity="1.000000" stroke="none" d="M 21.885 24.52 C 22.497 24.594 22.597 25.072 22.349 25.351 C 22.272 25.437 22.177 25.516 22.081 25.589 C 21.835 25.771 21.585 25.948 21.313 26.14 C 21.462 26.15 21.587 26.144 21.713 26.144 C 21.837 26.147 21.963 26.147 22.087 26.147 C 22.215 26.147 22.344 26.147 22.484 26.147 C 22.484 26.206 22.484 26.259 22.484 26.322 C 21.965 26.322 21.443 26.322 20.919 26.322 C 20.882 26.227 20.918 26.162 21.013 26.098 C 21.256 25.938 21.496 25.768 21.73 25.599 C 21.85 25.512 21.965 25.418 22.07 25.323 C 22.16 25.241 22.206 25.141 22.202 25.029 C 22.195 24.862 22.045 24.729 21.83 24.707 C 21.645 24.687 21.477 24.724 21.34 24.827 C 21.27 24.882 21.207 24.94 21.132 25.002 C 21.075 24.97 21.019 24.938 20.963 24.906 C 21.131 24.626 21.448 24.493 21.885 24.52 Z" style=""></path>
  <path fill="#F93E03" opacity="1.000000" stroke="none" d="M 27.488 24.726 C 27.46 24.668 27.448 24.614 27.434 24.546 C 27.963 24.546 28.469 24.546 28.998 24.546 C 28.987 24.614 28.993 24.681 28.96 24.732 C 28.634 25.263 28.301 25.79 27.968 26.324 C 27.878 26.324 27.787 26.324 27.675 26.324 C 28.012 25.79 28.343 25.269 28.688 24.729 C 28.274 24.729 27.888 24.729 27.488 24.726 Z" style=""></path>
  <path fill="#F93E03" opacity="1.000000" stroke="none" d="M 12.326 25.297 C 12.326 25.647 12.326 25.984 12.326 26.326 C 12.235 26.326 12.162 26.326 12.076 26.326 C 12.076 25.736 12.076 25.15 12.076 24.55 C 12.15 24.55 12.226 24.55 12.326 24.55 C 12.326 24.794 12.326 25.04 12.326 25.297 Z" style=""></path>
  <path fill="#F93E03" opacity="1.000000" stroke="none" d="M 17.225 6.255 C 17.286 6.231 17.342 6.206 17.414 6.181 C 17.424 6.181 17.421 6.181 17.421 6.181 C 17.374 6.214 17.328 6.244 17.265 6.273 C 17.243 6.264 17.234 6.259 17.225 6.255 Z" style=""></path>
  <path fill="#F93E03" opacity="1.000000" stroke="none" d="M 21.618 6.283 C 21.597 6.272 21.572 6.264 21.548 6.25 C 21.517 6.235 21.49 6.217 21.471 6.178 C 21.516 6.195 21.56 6.214 21.613 6.245 C 21.618 6.27 21.618 6.275 21.618 6.283 Z" style=""></path>
  <path fill="#F93E03" opacity="1.000000" stroke="none" d="M 17.218 6.257 C 17.234 6.259 17.243 6.264 17.255 6.275 C 17.249 6.286 17.241 6.291 17.225 6.299 C 17.212 6.297 17.207 6.294 17.194 6.284 C 17.194 6.272 17.202 6.267 17.218 6.257 Z" style=""></path>
  <path fill="#F93E03" opacity="1.000000" stroke="none" d="M 10.511 8.505 C 10.503 8.505 10.493 8.5 10.486 8.492 C 10.497 8.492 10.501 8.496 10.511 8.505 Z" style=""></path>
  <path fill="#F93E03" opacity="1.000000" stroke="none" d="M 20.532 6.732 C 20.524 6.726 20.523 6.717 20.52 6.705 C 20.527 6.705 20.534 6.705 20.546 6.715 C 20.547 6.719 20.536 6.728 20.532 6.732 Z" style=""></path>
  <path fill="#F93E03" opacity="1.000000" stroke="none" d="M 18.334 6.722 C 18.337 6.715 18.346 6.71 18.352 6.703 C 18.354 6.711 18.356 6.717 18.351 6.728 C 18.346 6.733 18.337 6.727 18.334 6.722 Z" style=""></path>
  <path fill="#F93E03" opacity="1.000000" stroke="none" d="M 21.631 6.286 C 21.618 6.275 21.618 6.27 21.618 6.253 C 21.625 6.258 21.635 6.273 21.631 6.286 Z" style=""></path>
  <path fill="#F93E03" opacity="1.000000" stroke="none" d="M 17.424 6.181 C 17.43 6.176 17.433 6.17 17.436 6.164 C 17.436 6.169 17.436 6.174 17.43 6.18 C 17.421 6.181 17.424 6.181 17.424 6.181 Z" style=""></path>
  <path fill="#F93E03" opacity="1.000000" stroke="none" d="M 17.505 6.143 C 17.504 6.142 17.505 6.143 17.505 6.143 Z" style=""></path>
</svg>