<svg width="283" height="26" viewBox="0 0 283 26" fill="none" xmlns="http://www.w3.org/2000/svg">
<path d="M9.46463 21.336C6.13263 21.336 3.16463 20.216 0.924625 18.144L3.30463 15.316C5.12463 16.884 7.19663 17.836 9.63263 17.836C11.7046 17.836 12.7686 16.884 12.7686 15.68C12.7686 14.308 11.6486 13.888 8.70863 13.216C4.64863 12.292 1.76463 11.144 1.76463 7.42C1.76463 3.864 4.67663 1.428 8.87663 1.428C12.0126 1.428 14.4486 2.408 16.4086 4.088L14.2526 7.056C12.5446 5.684 10.6126 4.928 8.76463 4.928C7.00063 4.928 5.93663 5.852 5.93663 7C5.93663 8.4 7.08463 8.848 10.0526 9.52C14.1966 10.444 16.9406 11.676 16.9406 15.232C16.9406 18.9 14.1686 21.336 9.46463 21.336ZM21.5541 4.536C20.2941 4.536 19.3141 3.528 19.3141 2.296C19.3141 1.148 20.2941 0.111999 21.5541 0.111999C22.7581 0.111999 23.7661 1.148 23.7661 2.296C23.7661 3.528 22.7581 4.536 21.5541 4.536ZM19.4821 21V6.524H23.5701V21H19.4821ZM37.1722 6.524H41.2602V19.46C41.2602 23.184 38.0402 25.816 33.4762 25.816C30.9282 25.816 28.5482 25.004 27.0922 23.884L28.5202 21C29.4722 21.84 31.1802 22.372 32.8602 22.372C35.4922 22.372 37.1722 21.168 37.1722 19.292V17.668C36.0242 19.096 34.3162 19.936 32.3842 19.936C28.7162 19.936 25.9442 17.08 25.9442 13.048C25.9442 9.016 28.7162 6.188 32.3842 6.188C34.3162 6.188 36.1922 7.112 37.1722 8.484V6.524ZM33.6722 16.492C35.7162 16.492 37.1722 15.064 37.1722 13.048C37.1722 11.032 35.7162 9.632 33.6722 9.632C31.6282 9.632 30.1722 11.032 30.1722 13.048C30.1722 15.064 31.6282 16.492 33.6722 16.492ZM52.9029 6.188C56.0389 6.188 58.2509 8.484 58.2509 11.788V21H54.3309V12.656C54.3309 10.864 53.2109 9.632 51.5869 9.632C49.8789 9.632 48.5349 10.864 48.5349 12.432V21H44.4469V6.524H48.5349V8.316C49.4029 7.028 51.0269 6.188 52.9029 6.188ZM70.5906 6.524H74.6506V21H70.5906V19.208C69.7226 20.496 68.0986 21.336 66.2226 21.336C63.0586 21.336 60.8466 19.04 60.8466 15.736V6.524H64.7946V14.868C64.7946 16.66 65.9146 17.892 67.5386 17.892C69.2466 17.892 70.5906 16.66 70.5906 15.092V6.524ZM86.9069 6.188C90.7709 6.188 93.5429 9.324 93.5429 13.748C93.5429 18.2 90.7709 21.336 86.9069 21.336C84.8909 21.336 83.1829 20.44 82.0349 18.956V25.816H77.9469V6.524H82.0349V8.568C83.1829 7.084 84.8909 6.188 86.9069 6.188ZM85.7309 17.892C87.9709 17.892 89.5669 16.184 89.5669 13.748C89.5669 11.34 87.9709 9.632 85.7309 9.632C83.5469 9.632 82.0349 11.34 82.0349 13.748C82.0349 16.184 83.5469 17.892 85.7309 17.892ZM111.348 17.416L112.328 20.076C111.488 20.832 110.172 21.336 109.024 21.336C106.448 21.336 104.656 19.516 104.656 16.912V9.828H102.668V6.524H104.656V2.548H108.604V6.524H111.74V9.828H108.604V16.268C108.604 17.22 109.192 17.892 109.976 17.892C110.536 17.892 111.068 17.696 111.348 17.416ZM121.256 21.336C116.916 21.336 113.36 17.92 113.36 13.748C113.36 9.576 116.916 6.188 121.256 6.188C125.596 6.188 129.152 9.576 129.152 13.748C129.152 17.92 125.596 21.336 121.256 21.336ZM121.256 17.892C123.44 17.892 125.232 16.016 125.232 13.748C125.232 11.48 123.44 9.632 121.256 9.632C119.072 9.632 117.28 11.48 117.28 13.748C117.28 16.016 119.072 17.892 121.256 17.892ZM149.5 6.524H153.588V19.46C153.588 23.184 150.368 25.816 145.804 25.816C143.256 25.816 140.876 25.004 139.42 23.884L140.848 21C141.8 21.84 143.508 22.372 145.188 22.372C147.82 22.372 149.5 21.168 149.5 19.292V17.668C148.352 19.096 146.644 19.936 144.712 19.936C141.044 19.936 138.272 17.08 138.272 13.048C138.272 9.016 141.044 6.188 144.712 6.188C146.644 6.188 148.52 7.112 149.5 8.484V6.524ZM146 16.492C148.044 16.492 149.5 15.064 149.5 13.048C149.5 11.032 148.044 9.632 146 9.632C143.956 9.632 142.5 11.032 142.5 13.048C142.5 15.064 143.956 16.492 146 16.492ZM163.551 18.172C164.867 18.172 166.379 17.584 167.303 16.744L169.599 19.096C168.311 20.44 165.819 21.336 163.691 21.336C159.379 21.336 155.935 18.172 155.935 13.72C155.935 9.352 159.239 6.188 163.467 6.188C168.003 6.188 170.747 9.464 170.747 14.84H159.827C160.191 16.8 161.563 18.172 163.551 18.172ZM163.495 9.352C161.675 9.352 160.303 10.556 159.855 12.404H166.827C166.491 10.612 165.343 9.352 163.495 9.352ZM180.2 17.416L181.18 20.076C180.34 20.832 179.024 21.336 177.876 21.336C175.3 21.336 173.508 19.516 173.508 16.912V9.828H171.52V6.524H173.508V2.548H177.456V6.524H180.592V9.828H177.456V16.268C177.456 17.22 178.044 17.892 178.828 17.892C179.388 17.892 179.92 17.696 180.2 17.416ZM196.635 21.336C194.339 21.336 191.875 20.552 190.111 19.152L191.763 16.576C193.275 17.64 195.179 18.34 196.719 18.34C198.091 18.34 198.819 17.836 198.819 16.996C198.819 16.072 197.643 15.68 196.075 15.288C193.079 14.56 190.783 13.748 190.783 10.892C190.783 8.148 193.023 6.188 196.439 6.188C198.511 6.188 200.527 6.916 202.151 7.98L200.639 10.612C199.351 9.772 197.783 9.128 196.439 9.128C195.347 9.128 194.507 9.66 194.507 10.472C194.507 11.256 195.319 11.48 197.251 12.012C199.771 12.656 202.543 13.496 202.543 16.66C202.543 19.516 200.191 21.336 196.635 21.336ZM211.782 17.416L212.762 20.076C211.922 20.832 210.606 21.336 209.458 21.336C206.882 21.336 205.09 19.516 205.09 16.912V9.828H203.102V6.524H205.09V2.548H209.038V6.524H212.174V9.828H209.038V16.268C209.038 17.22 209.626 17.892 210.41 17.892C210.97 17.892 211.502 17.696 211.782 17.416ZM219.978 6.188C223.758 6.188 226.362 8.568 226.362 12.348V21H222.414V19.544C221.378 20.692 219.726 21.336 218.13 21.336C215.05 21.336 212.698 19.488 212.698 16.716C212.698 13.86 215.358 11.9 218.69 11.9C219.866 11.9 221.182 12.152 222.414 12.656V12.348C222.414 10.808 221.434 9.464 219.054 9.464C217.71 9.464 216.45 9.912 215.302 10.5L213.93 7.784C215.974 6.748 217.962 6.188 219.978 6.188ZM219.054 18.508C220.622 18.508 222.106 17.78 222.414 16.436V15.12C221.49 14.756 220.398 14.56 219.278 14.56C217.794 14.56 216.59 15.428 216.59 16.604C216.59 17.78 217.654 18.508 219.054 18.508ZM233.269 9.24C234.221 7.364 236.013 6.188 238.225 6.188V9.632C235.201 9.632 233.269 11.368 233.269 14.084V21H229.181V6.524H233.269V9.24ZM248.204 17.416L249.184 20.076C248.344 20.832 247.028 21.336 245.88 21.336C243.304 21.336 241.512 19.516 241.512 16.912V9.828H239.524V6.524H241.512V2.548H245.46V6.524H248.596V9.828H245.46V16.268C245.46 17.22 246.048 17.892 246.832 17.892C247.392 17.892 247.924 17.696 248.204 17.416ZM257.914 18.172C259.23 18.172 260.742 17.584 261.666 16.744L263.962 19.096C262.674 20.44 260.182 21.336 258.054 21.336C253.742 21.336 250.298 18.172 250.298 13.72C250.298 9.352 253.602 6.188 257.83 6.188C262.366 6.188 265.11 9.464 265.11 14.84H254.19C254.554 16.8 255.926 18.172 257.914 18.172ZM257.858 9.352C256.038 9.352 254.666 10.556 254.218 12.404H261.19C260.854 10.612 259.706 9.352 257.858 9.352ZM278.023 1.428H282.111V21H278.023V18.956C276.875 20.44 275.167 21.336 273.151 21.336C269.287 21.336 266.515 18.2 266.515 13.748C266.515 9.324 269.287 6.188 273.151 6.188C275.167 6.188 276.875 7.084 278.023 8.568V1.428ZM274.327 17.892C276.511 17.892 278.023 16.184 278.023 13.748C278.023 11.34 276.511 9.632 274.327 9.632C272.087 9.632 270.491 11.34 270.491 13.748C270.491 16.184 272.087 17.892 274.327 17.892Z" fill="#424242"/>
</svg>
